<svg width="52" height="52" xmlns="http://www.w3.org/2000/svg" xmlns:xlink="http://www.w3.org/1999/xlink" xmlns:svgjs="http://svgjs.com/svgjs" opacity=".502"><svg xmlns="http://www.w3.org/2000/svg" width="52" height="52" viewBox="1.414 1.233 51.171 51.171" fill="#f5c506"><path fill="#F5C506" paint-order="stroke fill markers" fill-rule="evenodd" d="M1.414 14.5l12.219-.464-.082-12.228 5.217 4.99.082 12.227-12.219.464-5.217-4.99zm7.918 7.572l12.219-.464-.082-12.228 5.217 4.99.082 12.227-12.219.464-5.217-4.99zM40.45 51.828l-.082-12.227 12.219-.464-5.217-4.99-12.22.465.083 12.227 5.217 4.99zm-7.918-7.572l-.082-12.227 12.219-.464-5.217-4.99-12.22.465.083 12.227 5.217 4.99zm6.787-43.023l.464 12.218 12.228-.082-4.99 5.217-12.227.083-.464-12.22 4.99-5.216zM31.747 9.15l.463 12.22 12.228-.083-4.989 5.217-12.228.083-.464-12.22 4.99-5.217zM1.99 40.267l12.227-.082.464 12.219 4.99-5.217-.464-12.22-12.228.083-4.99 5.217zm7.572-7.918l12.227-.082.464 12.219 4.99-5.217-.465-12.22-12.227.083-4.99 5.217z"/></svg></svg>